<svg width="35" height="42" viewBox="0 0 35 42" fill="none" xmlns="http://www.w3.org/2000/svg">
<g clip-path="url(#clip0_188_2646)">
<path d="M34.3407 17.8657C34.3407 17.7653 34.3372 17.6667 34.3283 17.568C34.1781 15.7359 33.3 14.2956 31.4394 14.2965C30.4552 14.2965 29.8889 14.6999 29.2466 15.3503L28.9683 15.3476C28.8658 13.5181 27.6979 12.0556 25.8497 12.0334C24.6782 12.0192 23.9591 12.5869 23.3141 13.4692L23.2452 13.5572C22.6418 12.4936 21.5012 11.7784 20.1964 11.7828C18.2942 11.789 16.7517 13.3235 16.7146 15.2268V10.3078L16.7013 3.51414C16.7005 1.57181 15.1341 -7.18023e-06 13.2046 0.00265841C11.2751 0.00532401 9.71398 1.57003 9.71487 3.52124L9.74137 24.7856L6.36298 22.0631C4.89289 20.8787 2.75489 21.0724 1.51892 22.5029C0.314749 23.8971 0.382777 25.9895 1.67529 27.3019L5.37615 31.0595L12.0154 37.7999C20.8165 46.7359 34.3425 40.4673 34.3416 27.8901V17.8648L34.3407 17.8657Z" fill="#FFCDAA"/>
<path d="M22.7867 17.2828C22.9386 17.3459 23.2311 17.2828 23.2311 16.9878C23.2311 16.0735 23.2461 14.26 23.2461 13.5563C22.3096 11.9134 21.0454 11.7535 20.1804 11.7562C19.9013 11.7571 19.4984 11.8335 19.2387 11.8966C20.7052 11.8966 22.36 12.531 22.36 16.6564C22.36 16.915 22.4457 17.2828 22.7867 17.2828Z" fill="#FFA78A"/>
<path d="M28.8588 17.9554C29.0107 18.0185 29.3023 17.8257 29.3032 17.6605C29.3067 16.7462 29.3182 16.0611 29.3182 15.3574C29.3182 13.2684 27.2385 11.965 25.9937 11.965C25.7145 11.965 25.3116 12.0423 25.0519 12.1054C25.9716 12.3266 28.2801 11.9339 28.2801 17.2722C28.2801 17.5307 28.5177 17.9554 28.8588 17.9554Z" fill="#FFA78A"/>
<path d="M34.3239 17.8399C34.3239 17.7395 34.3204 17.6409 34.3115 17.5423C34.1614 15.7101 33.2832 14.2698 31.4226 14.2707C31.1196 14.2707 30.8554 14.3089 30.6169 14.3818C31.912 14.7514 32.5481 16.0095 32.6736 17.5432C32.6815 17.6409 32.686 17.7404 32.686 17.8408V27.8661C32.686 36.0131 27.0114 41.5131 20.6204 41.9476C27.6449 42.4265 34.323 36.7034 34.323 27.8661V17.8408L34.3239 17.8399Z" fill="#FFA78A"/>
<path d="M15.4185 3.5097L15.4309 10.3034V13.457C15.4309 13.457 15.4309 16.6445 16.1819 17.1431C16.4496 17.263 16.7155 17.295 16.7155 17V10.3025L16.7031 3.50882C16.7005 1.56915 15.1341 -0.00266221 13.2046 3.38538e-06C13.2019 3.38538e-06 13.1993 3.38538e-06 13.1957 3.38538e-06C12.9978 3.38538e-06 12.9369 0.273671 13.1145 0.361636C14.2683 0.93385 15.4168 2.12804 15.4185 3.5097Z" fill="#FFA78A"/>
<path d="M4.70824 22.0374L9.72547 26.0802L9.7237 24.7598L6.34531 22.0374C5.46803 21.3301 4.35309 21.1151 3.33356 21.3594C3.82124 21.4767 4.29125 21.7015 4.70824 22.0374Z" fill="#FFA78A"/>
</g>
<defs>
<clipPath id="clip0_188_2646">
<rect width="33.6832" height="42" fill="white" transform="translate(0.658417)"/>
</clipPath>
</defs>
</svg>
