<svg width="50" height="50" viewBox="0 0 50 50" fill="none" xmlns="http://www.w3.org/2000/svg">
<g clip-path="url(#clip0_195_854)">
<path d="M34.5499 31.0875C28.9874 31.0875 24.4624 26.5625 24.4624 21C24.4624 15.4375 28.9874 10.9125 34.5499 10.9125C36.8124 10.9125 38.9499 11.65 40.7374 13.0375C41.6249 13.7375 41.7874 15.025 41.0999 15.9125C40.3999 16.8 39.1249 16.9625 38.2249 16.275C37.1624 15.45 35.8999 15.0125 34.5499 15.0125C31.2499 15 28.5624 17.6875 28.5624 21C28.5624 24.3 31.2499 26.9875 34.5499 26.9875C37.1374 26.9875 39.3374 25.3375 40.1874 23.0375H35.9499C34.8124 23.0375 33.8999 22.125 33.8999 20.9875C33.8999 19.85 34.8124 18.9375 35.9499 18.9375H42.5999C43.7249 18.9375 44.6499 19.85 44.6499 20.9875C44.6374 26.5625 40.1124 31.0875 34.5499 31.0875Z" fill="#00B2EF"/>
<path d="M7.62501 31.8C6.55001 31.8 5.65001 30.9625 5.58751 29.8875C5.52501 29 5.05001 21.1375 5.96251 17.5L5.97501 17.4625C6.86251 13.525 10.4375 10.6625 14.475 10.6625C19.275 10.6625 23.1875 14.575 23.1875 19.375C23.1875 21.9875 22.025 24.3375 20.2 25.9375L23.175 26.9C24.25 27.25 24.8375 28.4 24.4875 29.475C24.1375 30.55 22.9875 31.1375 21.9 30.7875L13.325 28C12.3875 27.7 11.8 26.7625 11.925 25.7875C12.05 24.8125 12.8625 24.0625 13.85 24.0125L14.35 23.9875C14.3875 23.9875 14.425 23.9875 14.45 23.9875C17 23.9875 19.0625 21.9125 19.0625 19.375C19.0625 16.825 16.9875 14.7625 14.45 14.7625C12.3 14.7625 10.4 16.2875 9.93751 18.375C9.93751 18.4 9.92501 18.425 9.91251 18.45L9.90001 18.5C9.27501 21.0375 9.50001 27.375 9.65001 29.6C9.72501 30.725 8.86251 31.7 7.73751 31.775C7.71251 31.8 7.66251 31.8 7.62501 31.8Z" fill="#034EA1"/>
<path d="M25.0624 39.05C24.8749 39.05 24.6749 39 24.5124 38.9125C18.1124 35.525 7.71243 38.4 7.59993 38.4375C6.98743 38.6125 6.34993 38.275 6.17493 37.6875C5.99993 37.1 6.34993 36.4875 6.96243 36.3125C7.41243 36.1875 17.8874 33.2875 25.1124 36.725C27.1249 35.925 34.3999 33.525 43.1499 36.4C43.7499 36.6 44.0749 37.225 43.8624 37.8125C43.6624 38.4 42.9999 38.7 42.3999 38.5C33.1749 35.4625 25.6374 38.9125 25.5624 38.95C25.3999 39.0125 25.2374 39.05 25.0624 39.05Z" fill="#6D6D64"/>
<mask id="mask0_195_854" style="mask-type:luminance" maskUnits="userSpaceOnUse" x="6" y="35" width="38" height="5">
<path d="M25.0624 39.05C24.8749 39.05 24.6749 39 24.5124 38.9125C18.1124 35.525 7.71243 38.4 7.59993 38.4375C6.98743 38.6125 6.34993 38.275 6.17493 37.6875C5.99993 37.1 6.34993 36.4875 6.96243 36.3125C7.41243 36.1875 17.8874 33.2875 25.1124 36.725C27.1249 35.925 34.3999 33.525 43.1499 36.4C43.7499 36.6 44.0749 37.225 43.8624 37.8125C43.6624 38.4 42.9999 38.7 42.3999 38.5C33.1749 35.4625 25.6374 38.9125 25.5624 38.95C25.3999 39.0125 25.2374 39.05 25.0624 39.05Z" fill="white"/>
</mask>
<g mask="url(#mask0_195_854)">
<path d="M8.71255 34.125H5.98755V40.2375H8.71255V34.125Z" fill="#00ADEE"/>
<path d="M11.3375 34.125H8.61255V40.2375H11.3375V34.125Z" fill="#8BC44E"/>
<path d="M13.9501 34.125H11.2251V40.2375H13.9501V34.125Z" fill="#F9A51A"/>
<path d="M16.5751 34.125H13.8501V40.2375H16.5751V34.125Z" fill="#F18295"/>
<path d="M19.1125 34.125H16.3875V40.2375H19.1125V34.125Z" fill="#93938A"/>
</g>
<path d="M25.0749 35.3625C25.0249 35.3625 24.9749 35.35 24.9249 35.325C17.6249 31.8625 6.94992 34.8 6.49992 34.925C6.31242 34.975 6.11242 34.8625 6.06242 34.675C6.01242 34.4875 6.12492 34.2875 6.31242 34.2375C6.62492 34.15 9.42492 33.3875 13.0999 33.0625C17.9249 32.6375 21.9624 33.1625 25.0999 34.6125C27.3874 33.725 34.8499 31.4 43.7624 34.3375C43.9499 34.4 44.0499 34.6 43.9874 34.7875C43.9249 34.975 43.7249 35.075 43.5374 35.0125C34.6499 32.0875 27.2749 34.525 25.2124 35.3375C25.1749 35.35 25.1249 35.3625 25.0749 35.3625Z" fill="#939280"/>
</g>
<defs>
<clipPath id="clip0_195_854">
<rect width="40" height="30" fill="white" transform="translate(5 10)"/>
</clipPath>
</defs>
</svg>
