<svg width="50" height="50" viewBox="0 0 50 50" fill="none" xmlns="http://www.w3.org/2000/svg">
<path d="M35.2437 31.8992C28.9859 31.8992 23.8953 26.7708 23.8953 20.4667C23.8953 14.1625 28.9859 9.03418 35.2437 9.03418C37.789 9.03418 40.1937 9.87001 42.2046 11.4425C43.2031 12.2358 43.3859 13.695 42.6124 14.7008C41.8249 15.7067 40.3906 15.8908 39.3781 15.1117C38.1828 14.1767 36.7625 13.6808 35.2437 13.6808C31.5312 13.6667 28.5078 16.7125 28.5078 20.4667C28.5078 24.2067 31.5312 27.2525 35.2437 27.2525C38.1546 27.2525 40.6296 25.3825 41.5859 22.7758H36.8187C35.539 22.7758 34.5125 21.7417 34.5125 20.4525C34.5125 19.1633 35.539 18.1292 36.8187 18.1292H44.2999C45.5656 18.1292 46.6062 19.1633 46.6062 20.4525C46.5921 26.7708 41.5015 31.8992 35.2437 31.8992Z" fill="#00B2EF"/>
<path d="M4.9531 32.7067C3.74373 32.7067 2.73123 31.7575 2.66091 30.5392C2.5906 29.5334 2.05623 20.6225 3.08279 16.5L3.09685 16.4575C4.09529 11.995 8.11716 8.75085 12.6594 8.75085C18.0594 8.75085 22.4609 13.185 22.4609 18.625C22.4609 21.5859 21.1531 24.2492 19.1 26.0625L22.4469 27.1534C23.6562 27.55 24.3172 28.8534 23.9234 30.0717C23.5297 31.29 22.2359 31.9559 21.0125 31.5592L11.3656 28.4C10.3109 28.06 9.64998 26.9975 9.7906 25.8925C9.93123 24.7875 10.8453 23.9375 11.9562 23.8809L12.5187 23.8525C12.5609 23.8525 12.6031 23.8525 12.6312 23.8525C15.5 23.8525 17.8203 21.5009 17.8203 18.625C17.8203 15.735 15.4859 13.3975 12.6312 13.3975C10.2125 13.3975 8.07498 15.1259 7.55466 17.4917C7.55466 17.52 7.5406 17.5484 7.52654 17.5767L7.51248 17.6334C6.80935 20.5092 7.06248 27.6917 7.23123 30.2134C7.3156 31.4884 6.34529 32.5934 5.07966 32.6784C5.05154 32.7067 4.99529 32.7067 4.9531 32.7067Z" fill="#034EA1"/>
<path d="M24.5704 40.9234C24.3594 40.9234 24.1344 40.8667 23.9516 40.7675C16.7516 36.9284 5.05161 40.1867 4.92504 40.2292C4.23598 40.4275 3.51879 40.045 3.32192 39.3792C3.12504 38.7134 3.51879 38.0192 4.20786 37.8209C4.71411 37.6792 16.4985 34.3925 24.6266 38.2884C26.8907 37.3817 35.075 34.6617 44.9188 37.92C45.5938 38.1467 45.9594 38.855 45.7204 39.5209C45.4954 40.1867 44.75 40.5267 44.075 40.3C33.6969 36.8575 25.2172 40.7675 25.1329 40.81C24.95 40.8809 24.7672 40.9234 24.5704 40.9234Z" fill="#6D6D64"/>
<mask id="mask0_195_854" style="mask-type:luminance" maskUnits="userSpaceOnUse" x="3" y="36" width="43" height="5">
<path d="M24.5704 40.9234C24.3594 40.9234 24.1344 40.8667 23.9516 40.7675C16.7516 36.9284 5.05161 40.1867 4.92504 40.2292C4.23598 40.4275 3.51879 40.045 3.32192 39.3792C3.12504 38.7134 3.51879 38.0192 4.20786 37.8209C4.71411 37.6792 16.4985 34.3925 24.6266 38.2884C26.8907 37.3817 35.075 34.6617 44.9188 37.92C45.5938 38.1467 45.9594 38.855 45.7204 39.5209C45.4954 40.1867 44.75 40.5267 44.075 40.3C33.6969 36.8575 25.2172 40.7675 25.1329 40.81C24.95 40.8809 24.7672 40.9234 24.5704 40.9234Z" fill="white"/>
</mask>
<g mask="url(#mask0_195_854)">
<path d="M6.17671 35.3417H3.11108V42.2692H6.17671V35.3417Z" fill="#00ADEE"/>
<path d="M9.12983 35.3417H6.06421V42.2692H9.12983V35.3417Z" fill="#8BC44E"/>
<path d="M12.0688 35.3417H9.00317V42.2692H12.0688V35.3417Z" fill="#F9A51A"/>
<path d="M15.0219 35.3417H11.9563V42.2692H15.0219V35.3417Z" fill="#F18295"/>
<path d="M17.8767 35.3417H14.811V42.2692H17.8767V35.3417Z" fill="#93938A"/>
</g>
<path d="M24.5843 36.7442C24.5281 36.7442 24.4718 36.73 24.4156 36.7017C16.2031 32.7775 4.19369 36.1067 3.68744 36.2484C3.4765 36.305 3.2515 36.1775 3.19525 35.965C3.139 35.7525 3.26556 35.5259 3.4765 35.4692C3.82806 35.37 6.97806 34.5059 11.1124 34.1375C16.5406 33.6559 21.0827 34.2509 24.6124 35.8942C27.1859 34.8884 35.5812 32.2534 45.6077 35.5825C45.8187 35.6534 45.9312 35.88 45.8609 36.0925C45.7906 36.305 45.5656 36.4184 45.3546 36.3475C35.3562 33.0325 27.0593 35.795 24.739 36.7159C24.6968 36.73 24.6406 36.7442 24.5843 36.7442Z" fill="#939280"/>
</svg>
