<svg width="451" height="60" viewBox="0 0 451 60" fill="none" xmlns="http://www.w3.org/2000/svg">
<g clip-path="url(#clip0_174_1146)">
<path d="M263.09 58.91C250.97 58.91 241.11 49.05 241.11 36.93C241.11 24.81 250.97 14.95 263.09 14.95C268.02 14.95 272.68 16.55 276.57 19.57C278.83 21.32 279.23 24.57 277.48 26.83C275.73 29.08 272.48 29.49 270.22 27.74C268.16 26.14 265.7 25.3 263.09 25.3C256.68 25.3 251.46 30.52 251.46 36.93C251.46 43.34 256.68 48.56 263.09 48.56C267.65 48.56 271.6 45.92 273.51 42.1H266.01C263.16 42.1 260.84 39.79 260.84 36.93C260.84 34.07 263.16 31.76 266.01 31.76H279.9C282.76 31.76 285.07 34.08 285.07 36.93C285.07 49.05 275.21 58.91 263.09 58.91Z" fill="#A8A89D"/>
<path d="M317.65 57.68C301.87 57.68 289.04 44.84 289.04 29.07C289.04 13.3 301.87 0.459991 317.65 0.459991C324.07 0.459991 330.14 2.53999 335.2 6.46999C337.45 8.21999 337.87 11.47 336.11 13.73C334.36 15.99 331.11 16.39 328.85 14.64C325.62 12.13 321.75 10.8 317.65 10.8C307.58 10.8 299.38 19 299.38 29.07C299.38 39.14 307.57 47.33 317.65 47.33C325.93 47.33 332.93 41.8 335.17 34.24H321.72C318.86 34.24 316.55 31.92 316.55 29.07C316.55 26.22 318.86 23.9 321.72 23.9H341.09C343.95 23.9 346.27 26.22 346.27 29.07C346.27 44.85 333.43 57.68 317.66 57.68H317.65Z" fill="#00AEEF"/>
<path d="M5.66991 59.5C2.95991 59.5 0.689908 57.4 0.509908 54.66C0.339908 52.12 -1.02009 29.53 1.55991 19.15L1.58991 19.03C4.06991 8 14.0799 0 25.4099 0C38.8699 0 49.8199 10.95 49.8199 24.41C49.8199 32.21 46.1399 39.16 40.4299 43.64L50.2899 46.84C53.0099 47.72 54.4999 50.64 53.6099 53.36C52.7199 56.08 49.8099 57.56 47.0899 56.68L22.3399 48.64C19.9699 47.87 18.4899 45.52 18.8099 43.04C19.1399 40.57 21.1799 38.68 23.6699 38.55L25.1199 38.47C25.2099 38.47 25.2999 38.47 25.3899 38.47C33.1399 38.47 39.4499 32.16 39.4499 24.4C39.4499 16.64 33.1399 10.33 25.3899 10.33C18.8399 10.33 13.0599 14.97 11.6499 21.35C11.6399 21.42 11.6199 21.48 11.5999 21.55L11.5599 21.71C9.70991 29.12 10.3899 47.52 10.8099 53.99C10.9899 56.84 8.82991 59.3 5.97991 59.48C5.86991 59.48 5.74991 59.49 5.63991 59.49L5.66991 59.5Z" fill="#034EA2"/>
<path d="M202.06 58.68C199.2 58.68 196.88 56.36 196.88 53.51V21.45C196.88 19.35 198.15 17.46 200.09 16.67C202.03 15.87 204.26 16.33 205.73 17.82L228.14 40.54V21.57C228.14 18.71 230.45 16.4 233.31 16.4C236.17 16.4 238.48 18.72 238.48 21.57V53.16C238.48 55.26 237.21 57.15 235.27 57.94C233.33 58.74 231.1 58.28 229.63 56.79L207.22 34.07V53.51C207.22 56.37 204.91 58.68 202.05 58.68H202.06Z" fill="#A8A89D"/>
<path d="M187.25 58.68C184.39 58.68 182.08 56.36 182.08 53.51V21.6C182.08 18.74 184.4 16.43 187.25 16.43C190.1 16.43 192.42 18.75 192.42 21.6V53.51C192.42 56.37 190.1 58.68 187.25 58.68Z" fill="#A8A89D"/>
<path d="M158.75 58.95C155.89 58.95 153.58 56.64 153.58 53.78C153.58 50.92 155.89 48.61 158.75 48.61C164.46 48.61 169.1 43.96 169.1 38.25C169.1 32.24 164.01 26.55 158.64 26.55H149.83V53.64C149.83 56.5 147.51 58.81 144.65 58.81C141.79 58.81 139.47 56.49 139.47 53.64V21.38C139.47 18.52 141.79 16.2 144.65 16.2H158.64C169.73 16.2 179.45 26.5 179.45 38.24C179.45 49.98 170.16 58.94 158.75 58.94V58.95Z" fill="#F28396"/>
<path d="M114.97 58.86C112.12 58.86 109.8 56.55 109.8 53.7C109.8 50.84 112.11 48.52 114.96 48.52H123.33L114.3 32.2L101.32 56.14C99.9598 58.65 96.8198 59.59 94.3098 58.22C91.7998 56.86 90.8698 53.72 92.2298 51.21L109.71 18.97C110.61 17.31 112.34 16.27 114.23 16.26H114.25C116.13 16.26 117.86 17.28 118.77 18.93L136.61 51.17C137.5 52.77 137.47 54.72 136.54 56.3C135.61 57.88 133.92 58.85 132.09 58.85L114.96 58.88H114.95L114.97 58.86Z" fill="#FAA61A"/>
<path d="M364.32 58.86C361.47 58.86 359.15 56.55 359.15 53.7C359.15 50.84 361.46 48.52 364.31 48.52H372.68L363.65 32.2L350.67 56.14C349.31 58.65 346.17 59.59 343.66 58.22C341.15 56.86 340.22 53.72 341.58 51.21L359.06 18.97C359.96 17.31 361.7 16.27 363.58 16.26H363.6C365.48 16.26 367.22 17.28 368.13 18.93L385.97 51.17C386.85 52.77 386.83 54.72 385.91 56.3C384.98 57.88 383.28 58.85 381.46 58.85L364.33 58.88H364.32V58.86Z" fill="#A8A89D"/>
<path d="M84.34 48.6H74.23C69.48 48.6 65.44 45.54 63.94 41.29H84.75C87.61 41.29 89.92 38.97 89.92 36.12C89.92 33.27 87.6 30.95 84.75 30.95H65.67C67.67 28.42 70.76 26.78 74.23 26.78H84.52C87.38 26.78 89.7 24.46 89.7 21.61C89.7 18.76 87.38 16.44 84.52 16.44H74.23C62.51 16.44 52.98 25.98 52.98 37.7C52.98 49.42 62.51 58.96 74.23 58.96H84.34C87.2 58.96 89.51 56.65 89.51 53.79C89.51 50.93 87.2 48.62 84.34 48.62V48.6Z" fill="#8FC851"/>
<path d="M444.62 48.7H434.51C430.36 48.7 426.75 46.37 424.9 42.96H445.03C447.89 42.96 450.2 40.64 450.2 37.79C450.2 34.94 447.89 32.62 445.03 32.62H424.9C426.75 29.21 430.36 26.88 434.51 26.88H444.8C447.66 26.88 449.97 24.56 449.97 21.71C449.97 18.86 447.66 16.54 444.8 16.54H434.51C422.79 16.54 413.25 26.07 413.25 37.8C413.25 49.53 422.78 59.06 434.51 59.06H444.62C447.48 59.06 449.79 56.74 449.79 53.89C449.79 51.04 447.47 48.72 444.62 48.72V48.7Z" fill="#A8A89D"/>
<path d="M410.46 16.48H382.35C379.49 16.48 377.18 18.8 377.18 21.65C377.18 24.5 379.49 26.82 382.35 26.82H391.5V53.64C391.5 56.5 393.81 58.81 396.67 58.81C399.53 58.81 401.84 56.49 401.84 53.64V26.82H410.45C413.31 26.82 415.62 24.5 415.62 21.65C415.62 18.8 413.3 16.48 410.45 16.48H410.46Z" fill="#A8A89D"/>
</g>
<defs>
<clipPath id="clip0_174_1146">
<rect width="450.21" height="59.5" fill="white"/>
</clipPath>
</defs>
</svg>
